<svg xmlns="http://www.w3.org/2000/svg" width="64" height="64" viewBox="0 0 64 64">
  <rect width="64" height="64" rx="14" fill="#2E7D32"/>
  <g stroke="#D7EB80" stroke-width="3.2" stroke-linecap="round" fill="none">
    <path d="M32 52 V22"/>
    <path d="M32 26 C24 24 21 18 22 12 C29 13 33 18 32 26 Z" fill="#D7EB80" stroke="none"/>
    <path d="M32 26 C40 24 43 18 42 12 C35 13 31 18 32 26 Z" fill="#A5D66A" stroke="none"/>
    <path d="M32 34 C25 32 22 27 23 22"/>
    <path d="M32 34 C39 32 42 27 41 22"/>
    <path d="M32 43 C26 41 23 37 24 33"/>
    <path d="M32 43 C38 41 41 37 40 33"/>
  </g>
</svg>
